<?xml version="1.0" encoding="UTF-8" standalone="yes"?>
<!-- Created with sK1/UniConvertor (http://sk1project.org/) -->
<svg xmlns="http://www.w3.org/2000/svg" xmlns:xlink="http://www.w3.org/1999/xlink"
  width="595.276pt" height="841.89pt" viewBox="-3 561 220 241"
  fill-rule="evenodd">
<g>
<path style="stroke:none; fill:none" d="M 67.8 613.89L 73.2 621.39C 73.2 621.39 76.8468 621.297 77.1 620.49C 77.3532 619.683 78.7516 612.849 92.7 612.99C 106.648 613.13 131.1 613.89 131.1 613.89C 131.1 613.89 143.365 615.32 144 621.99C 144.669 622.888 146.7 622.59 146.7 622.59L 149.1 615.99"/>
<path style="stroke:none; fill:none" d="M 146.7 622.59C 146.7 622.59 148.241 625.313 144 626.49C 143.771 627.641 142.097 638.846 130.8 639.69C 124.237 638.26 114.519 634.46 114.9 621.09C 114.853 621.257 111.152 618.582 105.9 621.09C 105.865 622.343 105.34 638.071 91.8 638.79C 83.3361 638.514 78.4041 635.241 77.1 624.99C 76.0762 624.718 73.5855 623.868 72.9 622.89C 72.2145 621.911 73.2 621.09 73.2 621.09"/>
<path style="stroke:none; fill:none" d="M 93.3 612.99C 93.3 612.99 103.675 612.422 105.3 618.09C 105.969 618.297 113.455 618.599 115.5 618.39C 115.954 618.078 119.245 613.108 129 613.89"/>
<path style="stroke:none; fill:none" d="M 103.5 630.99C 103.5 630.99 97.7997 639.842 102.3 641.79C 102.387 642.156 106.798 644.04 110.7 644.19C 114.602 644.34 119.623 640.338 119.7 639.69C 119.777 639.042 120.808 634.994 115.8 628.29"/>
<path style="stroke:none; fill:none" d="M 91.8603 647.688C 91.7417 649.278 89.6269 651.807 89.6269 651.807"/>
<path style="stroke:none; fill:none" d="M 92.83 647.719C 92.3609 648.856 91.8918 649.994 91.4227 651.131"/>
<path style="stroke:none; fill:none" d="M 93.8334 647.651C 93.3204 649.172 92.8072 650.693 92.2942 652.214"/>
<path style="stroke:none; fill:none" d="M 94.7463 647.512C 94.5577 648.938 94.369 650.364 94.1804 651.79C 94.2055 651.79 94.2307 651.79 94.2558 651.79"/>
<path style="stroke:none; fill:none" d="M 95.6064 647.658C 95.6416 649.033 95.6768 650.408 95.712 651.783"/>
<path style="stroke:none; fill:none" d="M 96.9644 647.461C 96.6632 649.229 96.6695 649.958 97.3003 651.505"/>
<path style="stroke:none; fill:none" d="M 97.8851 647.719C 98.0964 649.048 98.3077 650.377 98.5189 651.705"/>
<path style="stroke:none; fill:none" d="M 99.4807 647.583C 99.4606 649.027 99.4406 650.472 99.4205 651.916"/>
<path style="stroke:none; fill:none" d="M 100.692 647.274C 100.975 648.626 101.258 649.979 101.541 651.331"/>
<path style="stroke:none; fill:none" d="M 102.11 646.83C 102.319 648.441 102.528 650.053 102.736 651.664"/>
<path style="stroke:none; fill:none" d="M 103.54 646.459C 103.356 647.186 103.749 651.597 104.012 651.213"/>
<path style="stroke:none; fill:none" d="M 104.853 645.638C 104.647 646.199 103.585 650.816 104.623 650.816C 104.683 650.665 104.743 650.514 104.804 650.364"/>
<path style="stroke:none; fill:none" d="M 105.743 645.332C 105.757 645.926 104.588 651.326 105.588 651.213C 105.61 651.161 105.631 651.109 105.653 651.057"/>
<path style="stroke:none; fill:none" d="M 106.83 645.77C 106.957 647.522 107.084 649.274 107.211 651.026"/>
<path style="stroke:none; fill:none" d="M 108.071 645.522C 108.054 647.576 108.038 649.631 108.022 651.685"/>
<path style="stroke:none; fill:none" d="M 109.289 645.634C 109.157 647.262 109.025 648.889 108.893 650.517C 108.839 650.52 108.785 650.523 108.731 650.527"/>
<path style="stroke:none; fill:none" d="M 110.636 645.366C 111.073 646.59 111.287 650.297 110.036 651.141"/>
<path style="stroke:none; fill:none" d="M 112.002 645.074C 112 647.026 111.999 648.979 111.998 650.931"/>
<path style="stroke:none; fill:none" d="M 112.956 645.027C 112.86 645.65 112.174 650.666 113.341 650.666"/>
<path style="stroke:none; fill:none" d="M 113.862 645.094C 114.085 646.855 114.309 648.617 114.533 650.377C 114.572 650.365 114.611 650.353 114.65 650.34"/>
<path style="stroke:none; fill:none" d="M 115.246 645.285C 115.273 646.147 115.434 650.632 116.944 650.632"/>
<path style="stroke:none; fill:none" d="M 116.691 645.855C 116.811 646.967 116.72 650.048 118.045 650.639"/>
<path style="stroke:none; fill:none" d="M 117.661 645.943C 117.466 647.645 117.972 649.434 119.162 650.717"/>
<path style="stroke:none; fill:none" d="M 118.807 645.101C 119.203 646.733 119.6 648.365 119.996 649.997C 120.036 650.004 120.076 650.011 120.116 650.018"/>
<path style="stroke:none; fill:none" d="M 120.313 646.198C 120.017 647.321 120.254 649.903 121.309 650.663C 121.342 650.671 121.376 650.678 121.41 650.686"/>
<path style="stroke:none; fill:none" d="M 121.901 646.68C 121.68 647.671 121.573 650.108 122.825 650.591C 122.851 650.595 122.878 650.598 122.904 650.602"/>
<path style="stroke:none; fill:none" d="M 122.946 647.491C 123.163 648.542 123.381 649.592 123.598 650.642C 123.626 650.629 123.654 650.615 123.682 650.602"/>
<path style="stroke:none; fill:none" d="M 123.866 647.087C 124.124 648.11 124.382 649.134 124.64 650.157C 124.681 650.158 124.723 650.159 124.764 650.16"/>
<path style="stroke:none; fill:none" d="M 125.13 646.897C 125.375 648.232 125.62 649.566 125.866 650.9"/>
<path style="stroke:none; fill:none" d="M 126.148 648.113C 126.477 649.025 126.805 649.937 127.133 650.849C 127.145 650.815 127.156 650.782 127.167 650.748"/>
<path style="stroke:none; fill:none" d="M 67.8 615.99C 67.8 615.99 63.4847 568.287 107.4 561.39C 150.113 565.028 149.745 612.463 149.1 615.99C 149.076 616.279 159.336 608.694 154.8 627.99C 154.79 628.027 151.898 648.864 144.6 645.69C 144.543 645.733 145.344 663.852 116.7 678.99C 111.012 680.643 104.384 680.014 98.4 677.49C 92.4157 674.965 72.741 661.142 71.7 643.89C 70.5912 644.168 60.5998 640.735 58.8 625.29C 58.7913 624.807 57.6041 609.255 67.8 615.99z"/>
<path style="stroke:none; fill:none" d="M 77.4 658.29C 77.4 658.29 77.3969 666.302 78 667.59C 78.6031 668.877 91.2767 682.483 108 683.19C 119.853 681.247 135.726 669.228 136.5 666.99C 137.274 664.751 137.1 663.09 137.1 663.09"/>
<path style="stroke:none; fill:none" d="M 77.4 660.99C 77.4 660.99 71.2162 664.469 75 673.29C 75.0944 677.597 75 678.09 75 678.09C 75 678.09 67.6304 685.786 63.6 687.69C 59.5696 689.593 3.1244 717.179 0.3 723.09C -2.5244 729.001 16.9 801.201 100.2 800.49C 183.5 799.779 216 742.59 216 742.59C 216 742.59 206.876 721.562 148.8 691.89C 145.139 688.989 134.669 682.756 139.8 668.79C 140.708 664.883 137.4 663.09 137.4 663.09L 136.2 667.59C 136.2 667.59 132.756 673.329 114.9 681.69C 107.542 683.11 104.167 684.331 90.3 677.49C 85.9433 675.337 76.4903 670.368 77.4 660.99z"/>
</g>
</svg>