<?xml version="1.0" encoding="UTF-8" standalone="yes"?>
<!-- Created with sK1/UniConvertor (http://sk1project.org/) -->
<svg xmlns="http://www.w3.org/2000/svg" xmlns:xlink="http://www.w3.org/1999/xlink"
  width="595.276pt" height="841.89pt" viewBox="-1 814 76.5 29"
  fill-rule="evenodd">
<g>
<path style="stroke:none; fill:none" d="M 0.9 822.99C 0.9 822.99 4.5468 822.897 4.8 822.09C 5.0532 821.283 6.4516 814.449 20.4 814.59C 34.3484 814.73 58.8 815.49 58.8 815.49C 58.8 815.49 71.0653 816.92 71.7 823.59C 72.3686 824.488 74.4 824.19 74.4 824.19"/>
<path style="stroke:none; fill:white" d="M 74.4 824.19C 74.4 824.19 75.9406 826.913 71.7 828.09C 71.471 829.241 69.7969 840.446 58.5 841.29C 51.9373 839.86 42.2194 836.06 42.6 822.69C 42.5534 822.857 38.8523 820.182 33.6 822.69C 33.5651 823.943 33.04 839.671 19.5 840.39C 11.0361 840.114 6.1041 836.841 4.8 826.59C 3.7762 826.318 1.2855 825.468 0.6 824.49C -0.0855 823.511 0.9 822.99 0.9 822.99"/>
<path style="stroke:none; fill:none" d="M 21 814.59C 21 814.59 31.3748 814.022 33 819.69C 33.6695 819.897 41.1546 820.199 43.2 819.99C 43.6539 819.678 46.945 814.708 56.7 815.49"/>
</g>
</svg>